<svg xmlns="http://www.w3.org/2000/svg" width="254" height="256" fill="none" viewBox="0 0 254 256">
  <path fill="#2b251f" d="M119.851 2.74a12.936 12.936 0 0 1 14.298 0 12.938 12.938 0 0 0 11.901 1.251 12.937 12.937 0 0 1 13.986 2.973 12.937 12.937 0 0 0 11.38 3.698 12.938 12.938 0 0 1 13.063 5.815 12.937 12.937 0 0 0 10.363 5.984 12.938 12.938 0 0 1 11.568 8.404 12.936 12.936 0 0 0 8.892 8.007 12.937 12.937 0 0 1 9.568 10.626 12.937 12.937 0 0 0 7.033 9.68 12.939 12.939 0 0 1 7.15 12.384 12.934 12.934 0 0 0 4.867 10.931 12.937 12.937 0 0 1 4.418 13.599 12.94 12.94 0 0 0 2.488 11.705 12.938 12.938 0 0 1 1.495 14.22 12.934 12.934 0 0 0 0 11.966 12.938 12.938 0 0 1-1.495 14.22 12.94 12.94 0 0 0-2.488 11.705 12.938 12.938 0 0 1-4.418 13.599 12.933 12.933 0 0 0-4.867 10.931 12.938 12.938 0 0 1-7.15 12.383 12.938 12.938 0 0 0-7.033 9.681 12.937 12.937 0 0 1-9.568 10.626 12.935 12.935 0 0 0-8.892 8.007 12.937 12.937 0 0 1-11.568 8.404 12.937 12.937 0 0 0-10.363 5.983 12.935 12.935 0 0 1-13.063 5.816 12.939 12.939 0 0 0-11.38 3.698 12.938 12.938 0 0 1-13.986 2.973 12.937 12.937 0 0 0-11.901 1.251 12.937 12.937 0 0 1-14.298 0 12.937 12.937 0 0 0-11.901-1.251 12.938 12.938 0 0 1-13.986-2.973 12.939 12.939 0 0 0-11.38-3.698 12.935 12.935 0 0 1-13.063-5.816 12.937 12.937 0 0 0-10.363-5.983 12.937 12.937 0 0 1-11.568-8.404 12.936 12.936 0 0 0-8.892-8.007 12.937 12.937 0 0 1-9.568-10.626 12.939 12.939 0 0 0-7.033-9.681 12.937 12.937 0 0 1-7.15-12.383 12.936 12.936 0 0 0-4.867-10.931 12.938 12.938 0 0 1-4.418-13.599 12.938 12.938 0 0 0-2.488-11.705 12.937 12.937 0 0 1-1.495-14.22 12.937 12.937 0 0 0 0-11.966 12.937 12.937 0 0 1 1.495-14.22 12.938 12.938 0 0 0 2.488-11.705 12.937 12.937 0 0 1 4.418-13.599 12.937 12.937 0 0 0 4.867-10.931 12.937 12.937 0 0 1 7.15-12.383 12.937 12.937 0 0 0 7.033-9.681 12.937 12.937 0 0 1 9.568-10.626 12.937 12.937 0 0 0 8.892-8.007 12.937 12.937 0 0 1 11.568-8.404 12.937 12.937 0 0 0 10.363-5.983 12.937 12.937 0 0 1 13.063-5.816c4.17.701 8.419-.68 11.38-3.698a12.937 12.937 0 0 1 13.986-2.973 12.938 12.938 0 0 0 11.901-1.25Z"/>
</svg>
